<svg xmlns="http://www.w3.org/2000/svg" viewBox="0 0 162.4 94.3"><defs><style>.cls-1{opacity:0;}.cls-2{fill:#002ae1;}.cls-3{opacity:0;}.cls-4{opacity:0;}.cls-5{opacity:0.01;}.cls-6{opacity:0.01;}.cls-7{opacity:0.01;}.cls-8{opacity:0.02;}.cls-9{opacity:0.02;}.cls-10{opacity:0.03;}.cls-11{opacity:0.03;}.cls-12{opacity:0.04;}.cls-13{opacity:0.05;}.cls-14{opacity:0.07;}.cls-15{opacity:0.09;}.cls-16{opacity:0.15;}.cls-17{fill:#fff;}</style></defs><g id="Слой_2" data-name="Слой 2"><g id="Layer_1" data-name="Layer 1"><g class="cls-1"><path class="cls-2" d="M81.2,94.3C42.67,94.3,11,80.08,2.34,58.91A12.52,12.52,0,0,1,1.44,53,12.7,12.7,0,0,1,0,47.15C0,20.27,34.91,0,81.2,0s81.2,20.27,81.2,47.15c0,9-4.07,17.71-11.58,25L151,78a12.75,12.75,0,0,1-16,12.68l-11.25-3A132.83,132.83,0,0,1,81.2,94.3ZM25.46,48.21c.18.35.34.7.49,1.07,3.21,7.87,23,19.52,55.25,19.52,13.57,0,26.81-2.25,37.28-6.33a12.71,12.71,0,0,1,7.49-.54,12.72,12.72,0,0,1,4.35-5.76c4.18-3.09,6.58-6.38,6.58-9,0-8.62-22.22-21.65-55.7-21.65s-55.7,13-55.7,21.65C25.5,47.51,25.49,47.86,25.46,48.21Z"/></g><g class="cls-3"><path class="cls-2" d="M81.2,93.55C43,93.55,11.56,79.52,3,58.63a11.86,11.86,0,0,1-.83-5.75A11.9,11.9,0,0,1,.75,47.15C.75,20.7,35.34.75,81.2.75s80.45,20,80.45,46.4c0,6.55-2.15,15.78-11.59,24.73l.17,6.17A12,12,0,0,1,135.14,90l-11.46-3.06A131.74,131.74,0,0,1,81.2,93.55ZM24.69,48.36a13.17,13.17,0,0,1,.57,1.2c3.92,9.62,26.42,20,55.94,20,13.66,0,27-2.26,37.55-6.38a12,12,0,0,1,7.45-.41l.25.06a12,12,0,0,1,4.31-6c2.57-1.91,6.89-5.69,6.89-9.63,0-8.92-22.52-22.4-56.45-22.4S24.75,38.23,24.75,47.15A12,12,0,0,1,24.69,48.36Z"/></g><g class="cls-4"><path class="cls-2" d="M81.2,92.8C43.27,92.8,12.14,79,3.73,58.35A11.22,11.22,0,0,1,3,52.73,11.23,11.23,0,0,1,1.5,47.15c0-26,34.26-45.65,79.7-45.65s79.7,19.63,79.7,45.65c0,6.45-2.15,15.57-11.6,24.41l.18,6.51a11.26,11.26,0,0,1-14.14,11.19l-11.69-3.12A130.87,130.87,0,0,1,81.2,92.8ZM23.92,48.52a10.89,10.89,0,0,1,.64,1.33c4,9.83,26.81,20.45,56.64,20.45C95,70.3,108.38,68,119,63.87a11.3,11.3,0,0,1,7-.39l1,.26a11.17,11.17,0,0,1,4.23-6.36c2.68-2,7.19-6,7.19-10.23C138.4,37.71,116.12,24,81.2,24S24,37.71,24,47.15A12.44,12.44,0,0,1,23.92,48.52Z"/></g><g class="cls-5"><path class="cls-2" d="M81.2,92.05c-37.63,0-68.48-13.66-76.78-34a10.45,10.45,0,0,1-.66-5.49,10.41,10.41,0,0,1-1.51-5.42c0-25.6,33.94-44.9,79-44.9s79,19.3,79,44.9c0,6.35-2.14,15.36-11.61,24.09l.19,6.85a10.5,10.5,0,0,1-13.2,10.44l-11.91-3.18A130,130,0,0,1,81.2,92.05ZM23.14,48.68a9.83,9.83,0,0,1,.73,1.45C28.06,60.41,50.66,71.05,81.2,71.05c13.84,0,27.37-2.3,38.1-6.48a10.47,10.47,0,0,1,6.52-.36l1.73.46a10.51,10.51,0,0,1,4.1-6.69c2.8-2.07,7.5-6.23,7.5-10.83,0-9.74-22.58-23.9-57.95-23.9S23.25,37.41,23.25,47.15A11,11,0,0,1,23.14,48.68Z"/></g><g class="cls-6"><path class="cls-2" d="M81.2,91.3c-37.33,0-67.9-13.47-76.08-33.52a9.7,9.7,0,0,1-.58-5.37A9.71,9.71,0,0,1,3,47.15C3,22,36.62,3,81.2,3s78.2,19,78.2,44.15c0,6.25-2.13,15.15-11.62,23.77l.2,7.2a9.75,9.75,0,0,1-12.26,9.69l-12.13-3.24C111.05,89,96.47,91.3,81.2,91.3ZM22.36,48.83a10.68,10.68,0,0,1,.81,1.58c4.29,10.52,27.17,21.39,58,21.39,13.93,0,27.56-2.32,38.37-6.53a9.72,9.72,0,0,1,6.05-.34l2.57.68a9.74,9.74,0,0,1,3.91-7c2.91-2.15,7.8-6.5,7.8-11.43,0-10.29-22.33-24.65-58.7-24.65S22.5,36.86,22.5,47.15A10.2,10.2,0,0,1,22.36,48.83Z"/></g><g class="cls-7"><path class="cls-2" d="M81.2,90.55c-36.45,0-67.45-13.59-75.39-33a9,9,0,0,1-.47-5.25,8.94,8.94,0,0,1-1.59-5.1c0-12.77,8.88-24.26,25-32.37,14.15-7.11,32.78-11,52.44-11s38.28,3.92,52.44,11c16.13,8.11,25,19.6,25,32.37,0,8.57-4,16.6-11.63,23.44l.21,7.55a9,9,0,0,1-11.31,8.94l-12.36-3.29C111.05,88.22,96.48,90.55,81.2,90.55ZM21.56,49a9.35,9.35,0,0,1,.92,1.71C26.86,61.44,50,72.55,81.2,72.55c14,0,27.75-2.34,38.64-6.58a8.92,8.92,0,0,1,5.59-.31l3.47.92a9,9,0,0,1,3.65-7.39c3.69-2.74,8.1-7,8.1-12,0-12-25.43-25.4-59.45-25.4S21.75,35.16,21.75,47.15A8.57,8.57,0,0,1,21.56,49Z"/></g><g class="cls-8"><path class="cls-2" d="M81.2,89.8c-36.15,0-66.86-13.4-74.69-32.59a8.23,8.23,0,0,1-.37-5.12A8.21,8.21,0,0,1,4.5,47.15c0-12.47,8.73-23.73,24.59-31.7C43.15,8.39,61.65,4.5,81.2,4.5s38.05,3.89,52.1,11c15.86,8,24.6,19.23,24.6,31.7,0,8.44-4,16.36-11.64,23.11l.22,7.9a8.25,8.25,0,0,1-10.37,8.2L123.53,83C111.05,87.46,96.48,89.8,81.2,89.8ZM20.75,49.16a7.93,7.93,0,0,1,1,1.82C26.26,62,49.71,73.3,81.2,73.3c14.11,0,27.93-2.36,38.91-6.64a8.34,8.34,0,0,1,5.13-.28l4.44,1.19,0-.92A8.25,8.25,0,0,1,133,59.79c3.84-2.84,8.41-7.34,8.41-12.64C141.4,34.81,115.65,21,81.2,21S21,34.81,21,47.15A7.91,7.91,0,0,1,20.75,49.16Z"/></g><g class="cls-9"><path class="cls-2" d="M81.2,89.05c-35.85,0-66.28-13.21-74-32.12a7.5,7.5,0,0,1-.23-5,7.44,7.44,0,0,1-1.72-4.78c0-12.17,8.59-23.19,24.18-31,14-7,32.34-10.87,51.77-10.87S119,9.11,133,16.12c15.59,7.84,24.18,18.86,24.18,31,0,8.32-4,16.13-11.65,22.78l.23,8.25a7.49,7.49,0,0,1-9.43,7.45l-12.81-3.41C111.05,86.69,96.49,89.05,81.2,89.05ZM19.93,49.32a7.4,7.4,0,0,1,1.16,1.94C25.6,62.31,48.2,74.05,81.2,74.05c14.2,0,28.12-2.37,39.19-6.69A7.48,7.48,0,0,1,125,67.1l5.42,1.45-.05-1.92a7.5,7.5,0,0,1,3-6.24c4-2.94,8.71-7.62,8.71-13.24,0-12.72-25-26.9-60.95-26.9S20.25,34.43,20.25,47.15A7.4,7.4,0,0,1,19.93,49.32Z"/></g><g class="cls-10"><path class="cls-2" d="M81.2,88.3c-35.56,0-65.7-13-73.3-31.65a6.67,6.67,0,0,1-.08-4.89A6.73,6.73,0,0,1,6,47.15C6,35.28,14.44,24.5,29.77,16.79,43.62,9.83,61.88,6,81.2,6s37.58,3.83,51.43,10.79C148,24.5,156.4,35.28,156.4,47.15c0,8.19-4,15.89-11.66,22.45l.24,8.6a6.75,6.75,0,0,1-8.48,6.71l-13-3.48C111.05,85.93,96.49,88.3,81.2,88.3ZM19.08,49.49a6.56,6.56,0,0,1,1.32,2.06C25,62.82,47.87,74.8,81.2,74.8c14.3,0,28.31-2.39,39.46-6.74a6.75,6.75,0,0,1,4.19-.23l6.39,1.7-.09-2.92A6.73,6.73,0,0,1,133.89,61c4.11-3,9-7.92,9-13.85,0-13.08-25.34-27.65-61.7-27.65S19.5,34.07,19.5,47.15A6.74,6.74,0,0,1,19.08,49.49Z"/></g><g class="cls-11"><path class="cls-2" d="M81.2,87.55c-35.26,0-65.12-12.82-72.61-31.19a6,6,0,0,1,.11-4.78,6,6,0,0,1-1.95-4.43c0-22.65,32.7-40.4,74.45-40.4s74.45,17.75,74.45,40.4c0,8.05-4,15.65-11.67,22.11l.25,9a6,6,0,0,1-7.54,6l-13.26-3.54C111.05,85.17,96.5,87.55,81.2,87.55Zm-63-37.88a6.07,6.07,0,0,1,1.5,2.16c4.69,11.5,27.84,23.72,61.5,23.72,14.59,0,28.33-2.35,39.73-6.79a6,6,0,0,1,3.73-.21l7.35,2-.11-3.93a6,6,0,0,1,2.43-5c4.25-3.15,9.32-8.21,9.32-14.45,0-13.43-25.65-28.4-62.45-28.4s-62.45,15-62.45,28.4A6.07,6.07,0,0,1,18.2,49.67Z"/></g><g class="cls-12"><path class="cls-2" d="M81.2,86.8c-35,0-64.53-12.63-71.91-30.72a5.19,5.19,0,0,1,.36-4.69A5.26,5.26,0,0,1,7.5,47.15C7.5,24.92,39.87,7.5,81.2,7.5s73.7,17.42,73.7,39.65c0,7.92-4,15.4-11.68,21.77l.26,9.32a5.24,5.24,0,0,1-6.6,5.22l-13.49-3.6C111,84.41,96.5,86.8,81.2,86.8ZM17.25,49.86A5.26,5.26,0,0,1,19,52.11C24.63,65.9,51.37,76.3,81.2,76.3c14.69,0,28.52-2.36,40-6.84a5.2,5.2,0,0,1,3.26-.18l8.33,2.22-.14-4.93a5.27,5.27,0,0,1,2.13-4.37c4.39-3.25,9.62-8.5,9.62-15.05C144.4,33.07,119,18,81.2,18S18,33.07,18,47.15A5.2,5.2,0,0,1,17.25,49.86Z"/></g><g class="cls-13"><path class="cls-2" d="M81.2,86.05C46.53,86.05,17.25,73.61,10,55.8a4.5,4.5,0,0,1,.75-4.63,4.5,4.5,0,0,1-2.48-4c0-21.81,32-38.9,73-38.9s73,17.09,73,38.9c0,7.79-4,15.15-11.69,21.42l.27,9.69a4.49,4.49,0,0,1-5.65,4.48l-13.73-3.67C111,83.64,96.51,86.05,81.2,86.05Zm-65-36a4.47,4.47,0,0,1,2.14,2.32C24.05,66.45,51.08,77.05,81.2,77.05c14.78,0,28.71-2.38,40.28-6.89a4.52,4.52,0,0,1,2.79-.16l9.3,2.49-.17-5.94a4.53,4.53,0,0,1,1.82-3.75c4.53-3.35,9.93-8.78,9.93-15.65,0-16.21-29.29-29.9-63.95-29.9S17.25,30.94,17.25,47.15A4.51,4.51,0,0,1,16.17,50.08Z"/></g><g class="cls-14"><path class="cls-2" d="M81.2,85.3c-34.37,0-63.37-12.25-70.53-29.79a3.75,3.75,0,0,1,1.57-4.64A3.75,3.75,0,0,1,9,47.15C9,25.76,40.71,9,81.2,9s72.2,16.76,72.2,38.15c0,7.65-4,14.9-11.7,21.07L142,78.28A3.76,3.76,0,0,1,137.27,82l-14-3.72C111,82.88,96.51,85.3,81.2,85.3ZM14.66,50.38a3.77,3.77,0,0,1,3,2.3C23.46,67,50.8,77.8,81.2,77.8c14.87,0,28.89-2.4,40.55-6.94a3.72,3.72,0,0,1,2.33-.13l10.27,2.74-.2-7a3.77,3.77,0,0,1,1.52-3.11c4.67-3.46,10.23-9.08,10.23-16.26,0-16.61-29.63-30.65-64.7-30.65s-64.7,14-64.7,30.65A3.74,3.74,0,0,1,14.66,50.38Z"/></g><g class="cls-15"><path class="cls-2" d="M81.2,84.55c-34.07,0-62.79-12.06-69.83-29.32A3,3,0,1,1,16.92,53C23,67.79,50,78.55,81.2,78.55c15,0,29.08-2.42,40.82-7a3,3,0,0,1,1.86-.11l11.25,3-.23-8A3,3,0,0,1,136.12,64c4.8-3.56,10.53-9.37,10.53-16.86,0-17-30-31.4-65.45-31.4S15.75,30.13,15.75,47.15a3,3,0,0,1-6,0c0-21,31.38-37.4,71.45-37.4s71.45,16.43,71.45,37.4c0,7.51-4,14.64-11.71,20.72l.3,10.43a3,3,0,0,1-3.78,3L123.28,77.5C111,82.12,96.51,84.55,81.2,84.55Z"/></g><g class="cls-16"><path class="cls-2" d="M81.2,83.8C47.42,83.8,19,71.94,12.06,55a2.25,2.25,0,1,1,4.17-1.7c6.16,15.09,33.48,26.05,65,26.05,15.06,0,29.27-2.43,41.09-7a2.24,2.24,0,0,1,1.4-.07l12.21,3.26-.25-9a2.26,2.26,0,0,1,.91-1.87c7.09-5.25,10.84-11.28,10.84-17.46,0-8.29-6.68-16.22-18.81-22.32C116,18.49,99.14,15,81.2,15,44.7,15,15,29.42,15,47.15a2.25,2.25,0,0,1-4.5,0C10.5,26.6,41.55,10.5,81.2,10.5s70.7,16.1,70.7,36.65c0,7.36-4.05,14.38-11.72,20.36l.31,10.82a2.26,2.26,0,0,1-2.83,2.23l-14.42-3.85C111,81.35,96.52,83.8,81.2,83.8Z"/></g><path class="cls-2" d="M81.2,83.05c-32.95,0-61.73-11.94-68.44-28.39a1.5,1.5,0,1,1,2.77-1.13C21.81,68.9,49.42,80.05,81.2,80.05c15.15,0,29.45-2.45,41.37-7.1a1.55,1.55,0,0,1,.93,0l13.18,3.52-.28-10a1.54,1.54,0,0,1,.61-1.25c7.29-5.39,11.14-11.64,11.14-18.06,0-18.14-30-32.9-66.95-32.9S14.25,29,14.25,47.15a1.5,1.5,0,0,1-3,0c0-9.79,7.41-18.9,20.87-25.67,13.14-6.6,30.56-10.23,49.08-10.23s35.94,3.63,49.07,10.23c13.46,6.77,20.88,15.89,20.88,25.67,0,7.22-4.05,14.12-11.73,20l.32,11.2a1.51,1.51,0,0,1-1.89,1.49L123.2,75.93C111,80.59,96.52,83.05,81.2,83.05Z"/><path class="cls-17" d="M81.2,82.05c-32.56,0-60.95-11.67-67.52-27.76a.51.51,0,0,1,.28-.66.5.5,0,0,1,.65.28C21,69.64,49,81.05,81.2,81.05c15.27,0,29.7-2.48,41.73-7.16a.47.47,0,0,1,.31,0l14.48,3.86-.32-11.3a.49.49,0,0,1,.21-.41c7.55-5.59,11.54-12.12,11.54-18.87,0-18.69-30.48-33.9-67.95-33.9S13.25,28.46,13.25,47.15a.5.5,0,0,1-1,0c0-19.24,30.93-34.9,69-34.9s69,15.66,69,34.9c0,7-4.06,13.76-11.74,19.52l.33,11.7a.53.53,0,0,1-.19.41.5.5,0,0,1-.44.09l-15-4C111,79.57,96.53,82.05,81.2,82.05Z"/></g></g></svg>