<svg xmlns="http://www.w3.org/2000/svg" viewBox="0 0 170.12 84.5"><defs><style>.cls-1{opacity:0;}.cls-2{fill:#ff2154;}.cls-3{opacity:0;}.cls-4{opacity:0;}.cls-5{opacity:0.01;}.cls-6{opacity:0.01;}.cls-7{opacity:0.01;}.cls-8{opacity:0.02;}.cls-9{opacity:0.02;}.cls-10{opacity:0.03;}.cls-11{opacity:0.03;}.cls-12{opacity:0.04;}.cls-13{opacity:0.05;}.cls-14{opacity:0.07;}.cls-15{opacity:0.09;}.cls-16{opacity:0.15;}.cls-17{fill:#fff;}</style></defs><g id="Слой_2" data-name="Слой 2"><g id="Layer_1" data-name="Layer 1"><g class="cls-1"><path class="cls-2" d="M35.57,84.5A12.75,12.75,0,0,1,22.85,70.78L23,69.44c-2.45-1-5-2.18-7.57-3.38A26.41,26.41,0,0,1,4.15,27.85,12.76,12.76,0,0,1,14.9,22h0a12.67,12.67,0,0,1,6.62-6.68C70-5.91,106.2-5.15,155,18.12A26.56,26.56,0,0,1,170.12,42v.39A26.25,26.25,0,0,1,155.41,66c-37.08,18.36-67.5,22.71-101,14.34l-15.9,3.78A12.39,12.39,0,0,1,35.57,84.5Zm19-30a12.77,12.77,0,0,1,3.36.45c29,7.9,53.14,4.6,86.18-11.75a.93.93,0,0,0,.52-.82V42a.94.94,0,0,0-.56-.83C101.84,21,73.5,20.39,31.76,38.65a12.66,12.66,0,0,1-5.1,1.07h0a12,12,0,0,1-1,1.87.91.91,0,0,0,.43,1.31C31.41,45.37,36.3,47.46,41,49.29a12.75,12.75,0,0,1,6.9,6.42l3.71-.88A12.79,12.79,0,0,1,54.56,54.48Z"/></g><g class="cls-3"><path class="cls-2" d="M35.57,83.75a12,12,0,0,1-12-12.92L23.75,69c-2.6-1.11-5.27-2.3-8-3.58A25.66,25.66,0,0,1,4.78,28.26a12,12,0,0,1,10.64-5.53A12,12,0,0,1,21.84,16C70.09-5.13,106.1-4.36,154.71,18.79A25.82,25.82,0,0,1,169.37,42v.39a25.51,25.51,0,0,1-14.29,23C118.11,83.66,87.8,88,54.42,79.6L38.34,83.42A11.91,11.91,0,0,1,35.57,83.75Zm19-28.52a12.09,12.09,0,0,1,3.16.42c29.18,8,53.49,4.65,86.72-11.8a1.69,1.69,0,0,0,.93-1.49V42a1.72,1.72,0,0,0-1-1.51C101.93,20.23,73.43,19.6,31.46,38a12,12,0,0,1-5.34,1A12.25,12.25,0,0,1,25,41.19a1.65,1.65,0,0,0,.74,2.39c5.37,2.47,10.27,4.57,15,6.41a12,12,0,0,1,6.74,6.59l4.31-1A11.93,11.93,0,0,1,54.56,55.23Z"/></g><g class="cls-4"><path class="cls-2" d="M35.57,83A11.26,11.26,0,0,1,24.35,70.89l.18-2.41C21.79,67.31,19,66.06,16,64.7A25,25,0,0,1,1.5,42.07,24.76,24.76,0,0,1,5.42,28.66a11.22,11.22,0,0,1,10.52-5.14,11.24,11.24,0,0,1,6.2-6.86c48-21,83.86-20.24,132.25,2.81A25.08,25.08,0,0,1,168.62,42v.39a24.77,24.77,0,0,1-13.87,22.33C117.88,82.94,87.69,87.23,54.43,78.83L38.17,82.69A11,11,0,0,1,35.57,83Zm19-27a11,11,0,0,1,3,.4c29.37,8,53.84,4.68,87.25-11.86a2.42,2.42,0,0,0,1.35-2.16V42a2.45,2.45,0,0,0-1.41-2.19C102,19.45,73.37,18.81,31.16,37.27a11.17,11.17,0,0,1-5.56.9,11.55,11.55,0,0,1-1.23,2.62A2.32,2.32,0,0,0,24,42.07a2.46,2.46,0,0,0,1.43,2.2c5.38,2.47,10.3,4.57,15,6.41A11.27,11.27,0,0,1,47,57.47l5-1.18A10.88,10.88,0,0,1,54.56,56Z"/></g><g class="cls-5"><path class="cls-2" d="M35.57,82.25A10.51,10.51,0,0,1,25.1,71l.22-3c-2.89-1.22-5.87-2.54-9-4A24.15,24.15,0,0,1,6.05,29.07a10.49,10.49,0,0,1,10.44-4.73,10.47,10.47,0,0,1,6-7c47.79-20.9,83.47-20.14,131.62,2.8A24.3,24.3,0,0,1,167.87,42v.39A24,24,0,0,1,154.41,64c-36.75,18.19-66.83,22.45-100,14L38,82A10.09,10.09,0,0,1,35.57,82.25Zm19-25.52a10.31,10.31,0,0,1,2.76.37c29.19,8,54.62,4.51,87.78-11.91a3.17,3.17,0,0,0,1.77-2.83V42A3.19,3.19,0,0,0,145,39.11C102.11,18.66,73.3,18,30.86,36.59a10.55,10.55,0,0,1-5.8.76,10.54,10.54,0,0,1-1.32,3,3.12,3.12,0,0,0-.49,1.69A3.2,3.2,0,0,0,25.12,45c5.39,2.48,10.32,4.59,15.07,6.43a10.49,10.49,0,0,1,6.3,7L52.13,57A10.55,10.55,0,0,1,54.56,56.73Z"/></g><g class="cls-6"><path class="cls-2" d="M35.57,81.5A9.76,9.76,0,0,1,25.84,71l.27-3.48c-3-1.28-6.18-2.67-9.47-4.18a23.41,23.41,0,0,1-10-33.87,9.77,9.77,0,0,1,10.38-4.26A9.76,9.76,0,0,1,22.75,18c47.55-20.8,83.06-20,131,2.8A23.54,23.54,0,0,1,167.12,42v.39a23.26,23.26,0,0,1-13,21C117.43,81.48,87.47,85.71,54.44,77.28l-16.62,4A10.09,10.09,0,0,1,35.57,81.5Zm19-24a9.7,9.7,0,0,1,2.57.34c29.38,8,55,4.55,88.3-12a4,4,0,0,0,2.19-3.51V42a4,4,0,0,0-2.27-3.54C102.2,17.87,73.24,17.23,30.56,35.9a9.69,9.69,0,0,1-6.07.57A9.6,9.6,0,0,1,23.1,40a3.92,3.92,0,0,0,1.7,5.65c5.41,2.49,10.35,4.6,15.11,6.45a9.75,9.75,0,0,1,6,7.18l6.37-1.52A10.09,10.09,0,0,1,54.56,57.48Z"/></g><g class="cls-7"><path class="cls-2" d="M86.62,80.8a128.19,128.19,0,0,1-32.17-4.29l-16.8,4a9,9,0,0,1-11.06-9.45l.31-4c-3.19-1.34-6.48-2.79-9.95-4.38A22.67,22.67,0,0,1,7.31,29.87a9,9,0,0,1,10.38-3.7,9,9,0,0,1,5.36-7.45C70.38-2,105.71-1.23,153.42,21.5a22.8,22.8,0,0,1,13,20.47v.39a22.53,22.53,0,0,1-12.62,20.31C129,74.92,107.86,80.8,86.62,80.8ZM54.56,58.23a9.08,9.08,0,0,1,2.37.32c29.58,8.06,55.32,4.58,88.84-12a4.69,4.69,0,0,0,2.6-4.18V42a4.72,4.72,0,0,0-2.69-4.22C102.29,17.09,73.17,16.44,30.26,35.21a9,9,0,0,1-6.4.31,9,9,0,0,1-1.39,4,4.67,4.67,0,0,0,2,6.74c5.42,2.5,10.38,4.61,15.15,6.47a9,9,0,0,1,5.68,7.4l7.16-1.71A9.09,9.09,0,0,1,54.56,58.23Z"/></g><g class="cls-8"><path class="cls-2" d="M86.61,80.05a127.7,127.7,0,0,1-32.16-4.31l-17,4a8.26,8.26,0,0,1-10.14-8.66l.35-4.56c-3.34-1.39-6.78-2.91-10.42-4.58a21.91,21.91,0,0,1-9.33-31.7,8.25,8.25,0,0,1,10.47-3,8.23,8.23,0,0,1,4.94-7.85C70.45-1.19,105.61-.44,153.1,22.18A22.07,22.07,0,0,1,165.62,42v.39A21.79,21.79,0,0,1,153.42,62C128.78,74.19,107.74,80.05,86.61,80.05ZM54.56,59a8.4,8.4,0,0,1,2.17.29c29.78,8.11,55.67,4.62,89.37-12.06a5.46,5.46,0,0,0,3-4.85V42A5.46,5.46,0,0,0,146,37.08C102.39,16.3,73.11,15.65,30,34.53a8.23,8.23,0,0,1-6.82-.1,8.21,8.21,0,0,1-1.3,4.74,5.36,5.36,0,0,0-.84,2.9A5.46,5.46,0,0,0,24.17,47c5.44,2.5,10.41,4.63,15.2,6.49a8.25,8.25,0,0,1,5.26,7.63l8-1.91A8.23,8.23,0,0,1,54.56,59Z"/></g><g class="cls-9"><path class="cls-2" d="M86.6,79.3A126.71,126.71,0,0,1,54.46,75L37.3,79.05a7.51,7.51,0,0,1-9.21-7.87l.39-5.1c-3.48-1.45-7.09-3-10.9-4.79a21.16,21.16,0,0,1-9-30.61,7.49,7.49,0,0,1,10.36-2.27,4.38,4.38,0,0,1,.42.28,7.49,7.49,0,0,1,4.3-8.59C70.52-.4,105.52.34,152.77,22.86A21.28,21.28,0,0,1,164.87,42v.39a21.05,21.05,0,0,1-11.79,19C128.56,73.47,107.62,79.3,86.6,79.3Zm-32-19.57a7.66,7.66,0,0,1,2,.26c30,8.17,56,4.66,89.9-12.11a6.2,6.2,0,0,0,3.44-5.52V42a6.21,6.21,0,0,0-3.55-5.57C103,15.77,72.5,15.1,29.66,33.84A7.52,7.52,0,0,1,22.19,33a7.49,7.49,0,0,1-1,5.77,6.08,6.08,0,0,0-1,3.3,6.2,6.2,0,0,0,3.61,5.6c5.45,2.51,10.44,4.64,15.24,6.51a7.5,7.5,0,0,1,4.76,7.56l0,.33,9-2.14A7.78,7.78,0,0,1,54.56,59.73Z"/></g><g class="cls-10"><path class="cls-2" d="M86.59,78.54a126.19,126.19,0,0,1-32.12-4.35L37.13,78.32a6.75,6.75,0,0,1-8.29-7.09l.43-5.64c-3.63-1.5-7.39-3.14-11.37-5A20.39,20.39,0,0,1,9.21,31.09a6.75,6.75,0,0,1,11.37,7.27,6.84,6.84,0,0,0-1.08,3.71,7,7,0,0,0,4,6.28C29,50.87,34,53,38.83,54.88a6.76,6.76,0,0,1,4.28,6.8L43,63l10-2.38a6.75,6.75,0,0,1,3.34.06c30.16,8.22,56.36,4.7,90.43-12.16a7,7,0,0,0,3.85-6.2V42a7,7,0,0,0-4-6.25C103.12,15,72.43,14.31,29.36,33.15A6.75,6.75,0,1,1,24,20.78C70.59.38,105.42,1.13,152.45,23.53A20.54,20.54,0,0,1,164.12,42v.39a20.3,20.3,0,0,1-11.37,18.3C128.34,72.74,107.5,78.54,86.59,78.54Z"/></g><g class="cls-11"><path class="cls-2" d="M86.57,77.79a125.57,125.57,0,0,1-32.09-4.37L37,77.59a6,6,0,0,1-7.38-6.3l.48-6.19c-3.78-1.54-7.69-3.25-11.85-5.17A19.65,19.65,0,0,1,9.84,31.49,6,6,0,1,1,20,38a7.53,7.53,0,0,0-1.2,4.11,7.7,7.7,0,0,0,4.48,7c5.48,2.53,10.49,4.67,15.32,6.55a6,6,0,0,1,3.81,6.05L42.18,64l11-2.62a6.09,6.09,0,0,1,3,0c30.36,8.28,56.71,4.74,91-12.21a7.73,7.73,0,0,0,4.27-6.87V42A7.75,7.75,0,0,0,147,35C103.21,14.2,72.36,13.53,29.06,32.46a6,6,0,1,1-4.81-11c46.41-20.3,81.07-19.56,127.88,2.74A19.79,19.79,0,0,1,163.37,42v.39a19.55,19.55,0,0,1-11,17.62C128.12,72,107.38,77.79,86.57,77.79Z"/></g><g class="cls-12"><path class="cls-2" d="M86.56,77a124.53,124.53,0,0,1-32.07-4.39L36.78,76.86a5.26,5.26,0,0,1-6.45-5.51l.52-6.73c-3.92-1.6-8-3.37-12.33-5.37a18.91,18.91,0,0,1-8-27.36,5.25,5.25,0,0,1,8.84,5.66,8.41,8.41,0,0,0,3.61,12.16c5.49,2.53,10.52,4.68,15.36,6.57a5.22,5.22,0,0,1,3.33,5.29L41.35,65l12-2.86a5.28,5.28,0,0,1,2.59,0C86.5,70.49,113,66.94,147.43,49.9a8.47,8.47,0,0,0,4.69-7.54V42a8.48,8.48,0,0,0-4.83-7.6c-44-21-75-21.63-118.53-2.59a5.25,5.25,0,1,1-4.21-9.62C71.33,1.7,104.63,2.41,151.81,24.89A19,19,0,0,1,162.62,42v.39a18.81,18.81,0,0,1-10.53,17C127.9,71.28,107.26,77,86.56,77Z"/></g><g class="cls-13"><path class="cls-2" d="M86.55,76.28a124.05,124.05,0,0,1-32-4.41L36.61,76.13a4.5,4.5,0,0,1-5.53-4.72l.56-7.28c-4.07-1.65-8.29-3.48-12.8-5.56A18.16,18.16,0,0,1,11.1,32.3a4.5,4.5,0,1,1,7.58,4.85A9.17,9.17,0,0,0,22.6,50.4C28.11,52.93,33.15,55.08,38,57a4.47,4.47,0,0,1,2.85,4.53l-.34,4.43,13-3.09a4.55,4.55,0,0,1,2.23,0c30.75,8.38,57.4,4.81,92-12.32a9.21,9.21,0,0,0,5.11-8.21V42a9.22,9.22,0,0,0-5.26-8.28C103.4,12.63,72.22,12,28.46,31.09a4.5,4.5,0,0,1-3.61-8.25C71.39,2.49,104.53,3.2,151.48,25.57A18.26,18.26,0,0,1,161.87,42v.39a18.07,18.07,0,0,1-10.12,16.28C127.68,70.56,107.14,76.28,86.55,76.28Z"/></g><g class="cls-14"><path class="cls-2" d="M86.54,75.52a123.5,123.5,0,0,1-32-4.42L36.43,75.4a3.75,3.75,0,0,1-4.6-3.94l.6-7.82c-4.22-1.7-8.59-3.59-13.28-5.75A17.42,17.42,0,0,1,11.73,32.7a3.75,3.75,0,0,1,6.32,4,9.92,9.92,0,0,0,4.24,14.34c5.52,2.54,10.57,4.7,15.45,6.59a3.77,3.77,0,0,1,2.38,3.79l-.42,5.45,14-3.33a3.9,3.9,0,0,1,1.86,0c30.94,8.44,57.76,4.85,92.55-12.37a10,10,0,0,0,5.52-8.88V42a10,10,0,0,0-5.68-9C103.5,11.84,72.15,11.16,28.15,30.4a3.75,3.75,0,0,1-3-6.87C71.46,3.27,104.44,4,151.16,26.24a17.53,17.53,0,0,1,10,15.73v.39A17.32,17.32,0,0,1,151.42,58C127.45,69.83,107,75.52,86.54,75.52Z"/></g><g class="cls-15"><path class="cls-2" d="M86.53,74.77a122.57,122.57,0,0,1-32-4.45L36.26,74.67A3,3,0,0,1,33.62,74a3,3,0,0,1-1-2.51l.64-8.37c-4.36-1.75-8.88-3.7-13.76-5.94A16.74,16.74,0,0,1,9.75,42.07a16.5,16.5,0,0,1,2.62-9,3,3,0,0,1,5.05,3.23A10.66,10.66,0,0,0,22,51.76c5.53,2.55,10.6,4.71,15.49,6.61a3,3,0,0,1,1.9,3l-.5,6.48,15-3.57a3,3,0,0,1,1.48,0c31.14,8.48,58.11,4.88,93.08-12.42a10.75,10.75,0,0,0,5.94-9.56V42a10.74,10.74,0,0,0-6.11-9.63c-44.67-21.28-76.18-22-120.41-2.62a3,3,0,1,1-2.4-5.5c46.08-20.16,78.89-19.45,125.39,2.7a16.77,16.77,0,0,1,9.53,15v.39a16.56,16.56,0,0,1-9.28,14.93C127.23,69.1,106.9,74.77,86.53,74.77Z"/></g><g class="cls-16"><path class="cls-2" d="M86.51,74a122,122,0,0,1-32-4.47L36.09,73.94a2.25,2.25,0,0,1-2-.48,2.29,2.29,0,0,1-.78-1.88L34,62.65c-4.51-1.79-9.18-3.8-14.23-6.12A16,16,0,0,1,10.5,42.07,15.78,15.78,0,0,1,13,33.51a2.25,2.25,0,0,1,3.79,2.43A11.31,11.31,0,0,0,15,42.07a11.47,11.47,0,0,0,6.66,10.37c5.55,2.55,10.63,4.72,15.53,6.63a2.24,2.24,0,0,1,1.43,2.27l-.57,7.51L54,65a2.2,2.2,0,0,1,1.11,0C86.49,73.6,113.61,70,148.76,52.59a11.5,11.5,0,0,0,6.36-10.23V42a11.49,11.49,0,0,0-6.54-10.31C103.68,10.27,72,9.58,27.55,29a2.25,2.25,0,0,1-1.8-4.12C71.6,4.85,104.25,5.56,150.52,27.6A16,16,0,0,1,159.62,42v.39a15.82,15.82,0,0,1-8.86,14.26C127,68.37,106.78,74,86.51,74Z"/></g><path class="cls-2" d="M86.5,73.26a121.43,121.43,0,0,1-32-4.48L35.91,73.21a1.5,1.5,0,0,1-1.84-1.57l.73-9.48c-4.65-1.84-9.48-3.91-14.71-6.32a15.21,15.21,0,0,1-8.84-13.77,15.05,15.05,0,0,1,2.38-8.15,1.5,1.5,0,0,1,2.53,1.61,12.09,12.09,0,0,0-1.91,6.54,12.23,12.23,0,0,0,7.1,11c5.56,2.56,10.66,4.74,15.57,6.65a1.49,1.49,0,0,1,.95,1.51l-.65,8.54,17-4a1.55,1.55,0,0,1,.74,0c31.53,8.6,58.8,5,94.13-12.52a12.24,12.24,0,0,0,6.78-10.9V42a12.26,12.26,0,0,0-7-11C103.78,9.49,72,8.79,27.25,28.34a1.5,1.5,0,0,1-1.2-2.75C71.67,5.64,104.16,6.34,150.19,28.27A15.28,15.28,0,0,1,158.87,42v.39A15.07,15.07,0,0,1,150.42,56C126.79,67.65,106.66,73.26,86.5,73.26Z"/><path class="cls-17" d="M86.49,72.26a121,121,0,0,1-31.94-4.51L35.68,72.24a.54.54,0,0,1-.44-.11.51.51,0,0,1-.17-.42l.78-10.21c-4.85-1.9-9.87-4-15.34-6.56a14.17,14.17,0,0,1-6-20.49.5.5,0,1,1,.84.54,13.17,13.17,0,0,0,5.62,19c5.58,2.57,10.69,4.75,15.63,6.67a.53.53,0,0,1,.32.51l-.76,9.9,18.33-4.37a.49.49,0,0,1,.24,0c31.79,8.66,59.27,5,94.85-12.59a13.28,13.28,0,0,0,7.33-11.8V42a13.25,13.25,0,0,0-7.54-11.89C103.9,8.44,71.85,7.74,26.85,27.42a.49.49,0,0,1-.66-.25.5.5,0,0,1,.26-.66C71.76,6.69,104,7.39,149.76,29.18A14.24,14.24,0,0,1,157.87,42v.39A14.26,14.26,0,0,1,150,55.05C126.5,66.68,106.5,72.26,86.49,72.26Z"/></g></g></svg>