<svg xmlns="http://www.w3.org/2000/svg" viewBox="0 0 172.11 99.73"><defs><style>.cls-1{opacity:0;}.cls-2{fill:#87308f;}.cls-3{opacity:0;}.cls-4{opacity:0;}.cls-5{opacity:0.01;}.cls-6{opacity:0.01;}.cls-7{opacity:0.01;}.cls-8{opacity:0.02;}.cls-9{opacity:0.02;}.cls-10{opacity:0.03;}.cls-11{opacity:0.03;}.cls-12{opacity:0.04;}.cls-13{opacity:0.05;}.cls-14{opacity:0.07;}.cls-15{opacity:0.09;}.cls-16{opacity:0.15;}.cls-17{fill:#fff;}</style></defs><g id="Слой_2" data-name="Слой 2"><g id="Layer_1" data-name="Layer 1"><g class="cls-1"><path class="cls-2" d="M128.6,99.73a12.77,12.77,0,0,1-7.67-2.56L114.2,92.1H46.05a45.83,45.83,0,0,1-25.31-7.58,12.62,12.62,0,0,1-4.31-4.78,12.69,12.69,0,0,1-5.29-3.66A46,46,0,0,1,46.05,0h80a46.05,46.05,0,0,1,15,89.57L141,90a12.73,12.73,0,0,1-12.4,9.78ZM32.13,61.89a13.12,13.12,0,0,1,2.64,1.34A20.45,20.45,0,0,0,46.05,66.6h72.41A12.8,12.8,0,0,1,124.21,68a12.7,12.7,0,0,1,4.61-1.55A20.59,20.59,0,0,0,146.61,46,20.57,20.57,0,0,0,126.06,25.5h-80A20.54,20.54,0,0,0,30.47,59.44,13.05,13.05,0,0,1,32.13,61.89Z"/></g><g class="cls-3"><path class="cls-2" d="M128.6,99a12,12,0,0,1-7.22-2.41l-6.93-5.22H46.05a45.1,45.1,0,0,1-24.9-7.46A11.88,11.88,0,0,1,17,79.13a11.89,11.89,0,0,1-5.25-3.54A45.29,45.29,0,0,1,46.05.75h80A45.3,45.3,0,0,1,140.46,89l-.19.79A12,12,0,0,1,128.6,99Zm-97-36.48a11.57,11.57,0,0,1,2.76,1.35,21.16,21.16,0,0,0,11.7,3.5h72.41a12,12,0,0,1,5.77,1.47,11.86,11.86,0,0,1,4.69-1.66A21.36,21.36,0,0,0,147.36,46a21.32,21.32,0,0,0-21.3-21.29h-80A21.29,21.29,0,0,0,29.9,59.93,12,12,0,0,1,31.59,62.5Z"/></g><g class="cls-4"><path class="cls-2" d="M128.6,98.23A11.22,11.22,0,0,1,121.84,96L114.7,90.6H46.05a44.42,44.42,0,0,1-24.49-7.33,11.29,11.29,0,0,1-4.06-4.75,11.22,11.22,0,0,1-5.22-3.42A44.54,44.54,0,0,1,46.05,1.5h80a44.55,44.55,0,0,1,13.77,86.91l-.29,1.19a11.23,11.23,0,0,1-10.94,8.63ZM31.05,63.12a11,11,0,0,1,2.89,1.36A21.92,21.92,0,0,0,46.05,68.1h72.41a11.19,11.19,0,0,1,5.79,1.6A11.14,11.14,0,0,1,129,67.9,22.08,22.08,0,0,0,148.11,46a22.08,22.08,0,0,0-22.05-22h-80A22,22,0,0,0,29.33,60.42,10.92,10.92,0,0,1,31.05,63.12Z"/></g><g class="cls-5"><path class="cls-2" d="M128.6,97.48a10.48,10.48,0,0,1-6.31-2.11L115,89.85H46.05A43.63,43.63,0,0,1,22,82.64a10.43,10.43,0,0,1-3.93-4.75,10.43,10.43,0,0,1-5.21-3.28A43.8,43.8,0,0,1,46.05,2.25h80A43.8,43.8,0,0,1,139.2,87.83l-.38,1.6a10.53,10.53,0,0,1-6.66,7.44A10.66,10.66,0,0,1,128.6,97.48ZM30.5,63.74a10.42,10.42,0,0,1,3,1.37,22.73,22.73,0,0,0,12.52,3.74h72.41a10.52,10.52,0,0,1,5.81,1.75,10.5,10.5,0,0,1,4.85-2A22.82,22.82,0,0,0,148.86,46a22.83,22.83,0,0,0-22.8-22.79h-80A22.8,22.8,0,0,0,28.76,60.91,10.2,10.2,0,0,1,30.5,63.74Z"/></g><g class="cls-6"><path class="cls-2" d="M128.6,96.73a9.74,9.74,0,0,1-5.86-2L115.2,89.1H46.05A42.89,42.89,0,0,1,22.39,82a9.67,9.67,0,0,1-3.78-4.76,9.68,9.68,0,0,1-5.2-3.14A43.05,43.05,0,0,1,46.05,3h80a43.05,43.05,0,0,1,12.51,84.24l-.48,2a9.75,9.75,0,0,1-6.19,6.91A9.63,9.63,0,0,1,128.6,96.73ZM30,64.37a10,10,0,0,1,3.17,1.36A23.38,23.38,0,0,0,46.05,69.6h72.41a9.83,9.83,0,0,1,5.84,1.93,9.68,9.68,0,0,1,4.91-2.14A23.59,23.59,0,0,0,149.61,46,23.58,23.58,0,0,0,126.06,22.5h-80A23.55,23.55,0,0,0,28.19,61.4,9.72,9.72,0,0,1,30,64.37Z"/></g><g class="cls-7"><path class="cls-2" d="M128.6,96a8.94,8.94,0,0,1-5.41-1.81l-7.74-5.82H46.05a42.16,42.16,0,0,1-23.25-7,8.92,8.92,0,0,1-3.62-4.78,9,9,0,0,1-5.2-3A42.3,42.3,0,0,1,46.05,3.75h80a42.3,42.3,0,0,1,11.88,82.89l-.58,2.44a9,9,0,0,1-5.71,6.37A8.9,8.9,0,0,1,128.6,96ZM29.38,65a8.88,8.88,0,0,1,3.32,1.34,24.19,24.19,0,0,0,13.35,4h72.41a9,9,0,0,1,5.42,1.81l.45.34a9,9,0,0,1,5-2.37A24.31,24.31,0,0,0,150.36,46a24.32,24.32,0,0,0-24.3-24.29h-80A24.3,24.3,0,0,0,27.62,61.89,9,9,0,0,1,29.38,65Z"/></g><g class="cls-8"><path class="cls-2" d="M128.6,95.23a8.2,8.2,0,0,1-5-1.66l-7.94-6H46.05a41.41,41.41,0,0,1-22.84-6.84A8.22,8.22,0,0,1,19.77,76a8.25,8.25,0,0,1-5.22-2.81A41.55,41.55,0,0,1,46.05,4.5h80A41.55,41.55,0,0,1,137.31,86l-.68,2.87a8.27,8.27,0,0,1-5.23,5.84A8.45,8.45,0,0,1,128.6,95.23ZM28.79,65.69a8.17,8.17,0,0,1,3.5,1.3A25,25,0,0,0,46.05,71.1h72.41a8.25,8.25,0,0,1,5,1.66l1,.73a8.29,8.29,0,0,1,5-2.62A25,25,0,0,0,126.06,21h-80a25,25,0,0,0-19,41.38A8.25,8.25,0,0,1,28.79,65.69Z"/></g><g class="cls-9"><path class="cls-2" d="M128.6,94.48a7.52,7.52,0,0,1-4.51-1.5L116,86.85H46.05a40.61,40.61,0,0,1-22.42-6.71,7.5,7.5,0,0,1-3.25-4.89,7.46,7.46,0,0,1-5.26-2.6A40.8,40.8,0,0,1,46.05,5.25h80a40.8,40.8,0,0,1,10.63,80.19l-.79,3.29A7.49,7.49,0,0,1,131.14,94,7.38,7.38,0,0,1,128.6,94.48ZM28.18,66.39a7.5,7.5,0,0,1,3.7,1.22,25.66,25.66,0,0,0,14.17,4.24h72.41a7.54,7.54,0,0,1,4.51,1.5l1.55,1.17a7.53,7.53,0,0,1,5-2.9,25.93,25.93,0,0,0,14.79-7.33,25.8,25.8,0,0,0-18.24-44h-80A25.8,25.8,0,0,0,26.49,62.87,7.59,7.59,0,0,1,28.18,66.39Z"/></g><g class="cls-10"><path class="cls-2" d="M128.6,93.73a6.78,6.78,0,0,1-4.06-1.35L116.2,86.1H46.05a39.88,39.88,0,0,1-22-6.59,6.75,6.75,0,0,1-3-5,6.66,6.66,0,0,1-5.34-2.35A40,40,0,0,1,46.05,6h80a40.05,40.05,0,0,1,10,78.83l-.89,3.73a6.76,6.76,0,0,1-4.28,4.78A7,7,0,0,1,128.6,93.73ZM27.76,67.12a6.71,6.71,0,0,1,3.71,1.12A26.39,26.39,0,0,0,46.05,72.6h72.41A6.74,6.74,0,0,1,122.52,74l2.18,1.65a6.77,6.77,0,0,1,4.91-3.24,26.55,26.55,0,0,0-3.55-52.86h-80A26.55,26.55,0,0,0,25.92,63.36a6.65,6.65,0,0,1,1.6,3.77Z"/></g><g class="cls-11"><path class="cls-2" d="M128.6,93a6,6,0,0,1-3.61-1.2l-8.53-6.43H46.05a39.13,39.13,0,0,1-21.6-6.47,6,6,0,0,1-2.7-5.19,6,6,0,0,1-5.5-2A39.3,39.3,0,0,1,46.05,6.75h80a39.3,39.3,0,0,1,9.38,77.46l-1,4.17a6,6,0,0,1-3.81,4.25A5.9,5.9,0,0,1,128.6,93ZM27.76,67.87a5.94,5.94,0,0,1,3.29,1,27.13,27.13,0,0,0,15,4.49h72.41a6,6,0,0,1,3.61,1.2l2.9,2.18a6,6,0,0,1,4.74-3.63,27.3,27.3,0,0,0-3.65-54.35h-80a27.3,27.3,0,0,0-20.7,45.1A5.94,5.94,0,0,1,26.8,68,6.22,6.22,0,0,1,27.76,67.87Z"/></g><g class="cls-12"><path class="cls-2" d="M128.6,92.23a5.25,5.25,0,0,1-3.15-1l-8.74-6.58H46.05a38.47,38.47,0,0,1-21.19-6.34,5.26,5.26,0,0,1-2.22-5.58,5.26,5.26,0,0,1-5.82-1.49A38.55,38.55,0,0,1,46.05,7.5h80a38.55,38.55,0,0,1,8.75,76.09l-1.1,4.62a5.26,5.26,0,0,1-5.11,4ZM27.76,68.62a5.19,5.19,0,0,1,2.88.87A27.94,27.94,0,0,0,46.05,74.1h72.41a5.28,5.28,0,0,1,3.16,1.05L125.36,78l0-.14a5.24,5.24,0,0,1,4.41-4,28.23,28.23,0,0,0,16.08-8A28,28,0,0,0,126.06,18h-80A28.05,28.05,0,0,0,24.78,64.34,5.22,5.22,0,0,1,25.91,69,5.32,5.32,0,0,1,27.76,68.62Z"/></g><g class="cls-13"><path class="cls-2" d="M128.6,91.48a4.52,4.52,0,0,1-2.7-.9L117,83.85H46.05a37.6,37.6,0,0,1-20.77-6.22,4.5,4.5,0,0,1,4.95-7.51,28.67,28.67,0,0,0,15.82,4.73h72.41a4.48,4.48,0,0,1,2.71.9l4.66,3.51.3-1.26a4.49,4.49,0,0,1,3.78-3.41,28.93,28.93,0,0,0,16.51-8.18,28.79,28.79,0,0,0-20.36-49.16h-80A28.8,28.8,0,0,0,24.21,64.82a4.5,4.5,0,1,1-6.82,5.88A37.8,37.8,0,0,1,46.05,8.25h80A37.8,37.8,0,0,1,134.19,83L133,88a4.47,4.47,0,0,1-4.38,3.45Z"/></g><g class="cls-14"><path class="cls-2" d="M128.6,90.73a3.71,3.71,0,0,1-2.25-.75l-9.14-6.88H46.05A36.92,36.92,0,0,1,25.69,77a3.75,3.75,0,1,1,4.13-6.27A29.35,29.35,0,0,0,46.05,75.6h72.41a3.74,3.74,0,0,1,2.26.75l5.57,4.2.57-2.37A3.76,3.76,0,0,1,130,75.33a29.55,29.55,0,0,0-3.95-58.83h-80A29.55,29.55,0,0,0,23.64,65.31,3.75,3.75,0,1,1,18,70.21,37,37,0,0,1,46.05,9h80a37.05,37.05,0,0,1,7.51,73.33l-1.32,5.53a3.75,3.75,0,0,1-3.65,2.87Z"/></g><g class="cls-15"><path class="cls-2" d="M128.6,90a3,3,0,0,1-1.8-.6l-9.34-7H46.05a36.19,36.19,0,0,1-19.95-6,3,3,0,0,1,3.3-5,30.22,30.22,0,0,0,16.65,5h72.41a3,3,0,0,1,1.81.6l6.48,4.88.84-3.48a3,3,0,0,1,2.52-2.27,30.3,30.3,0,0,0-4.05-60.33h-80a30.29,30.29,0,0,0-23,50.05,3,3,0,0,1-4.55,3.92,36.3,36.3,0,0,1,27.52-60h80A36.3,36.3,0,0,1,133,81.69l-1.44,6A3,3,0,0,1,128.6,90Z"/></g><g class="cls-16"><path class="cls-2" d="M128.6,89.23a2.24,2.24,0,0,1-1.35-.45l-9.54-7.18H46.05a35.32,35.32,0,0,1-19.53-5.85A2.25,2.25,0,1,1,29,72a31,31,0,0,0,17.06,5.1h72.41a2.22,2.22,0,0,1,1.36.45l7.4,5.57,1.1-4.59a2.23,2.23,0,0,1,1.89-1.71A31.14,31.14,0,0,0,148,68a31,31,0,0,0-21.95-53h-80A31,31,0,0,0,22.51,66.29a2.25,2.25,0,1,1-3.41,2.94A35.55,35.55,0,0,1,46.05,10.5h80A35.55,35.55,0,0,1,132.34,81l-1.55,6.47a2.21,2.21,0,0,1-1.42,1.59A2.27,2.27,0,0,1,128.6,89.23Z"/></g><path class="cls-2" d="M128.6,88.48a1.5,1.5,0,0,1-.9-.3L118,80.85H46.05a34.67,34.67,0,0,1-19.12-5.72,1.5,1.5,0,1,1,1.65-2.51,31.61,31.61,0,0,0,17.47,5.23h72.41a1.46,1.46,0,0,1,.9.3l8.32,6.26,1.37-5.71a1.51,1.51,0,0,1,1.26-1.14,31.9,31.9,0,0,0,18.23-9,31.79,31.79,0,0,0-22.48-54.28h-80A31.8,31.8,0,0,0,21.94,66.78a1.5,1.5,0,1,1-2.27,2A34.79,34.79,0,0,1,46.05,11.25h80a34.8,34.8,0,0,1,5.67,69.13l-1.67,7a1.49,1.49,0,0,1-.95,1.07A1.47,1.47,0,0,1,128.6,88.48Z"/><path class="cls-17" d="M128.6,87.48a.49.49,0,0,1-.3-.1l-10-7.53H46.05a33.58,33.58,0,0,1-18.57-5.56.49.49,0,0,1-.14-.69.5.5,0,0,1,.69-.14,32.69,32.69,0,0,0,18,5.39h72.41a.45.45,0,0,1,.3.1l9.54,7.18,1.72-7.2a.48.48,0,0,1,.42-.37,33,33,0,0,0,18.81-9.32,32.8,32.8,0,0,0-23.19-56h-80A32.8,32.8,0,0,0,21.18,67.43a.5.5,0,0,1-.76.66A33.8,33.8,0,0,1,46.05,12.25h80a33.8,33.8,0,0,1,4.85,67.25l-1.82,7.6a.52.52,0,0,1-.32.36Z"/></g></g></svg>