<svg xmlns="http://www.w3.org/2000/svg" viewBox="0 0 139.93 102.9"><defs><style>.cls-1{opacity:0;}.cls-2{fill:#009a78;}.cls-3{opacity:0;}.cls-4{opacity:0;}.cls-5{opacity:0.01;}.cls-6{opacity:0.01;}.cls-7{opacity:0.01;}.cls-8{opacity:0.02;}.cls-9{opacity:0.02;}.cls-10{opacity:0.03;}.cls-11{opacity:0.03;}.cls-12{opacity:0.04;}.cls-13{opacity:0.05;}.cls-14{opacity:0.07;}.cls-15{opacity:0.09;}.cls-16{opacity:0.15;}.cls-17{fill:#fff;}</style></defs><g id="Слой_2" data-name="Слой 2"><g id="Layer_1" data-name="Layer 1"><g class="cls-1"><path class="cls-2" d="M37.14,102.9A12.75,12.75,0,0,1,25.36,95H12.75A12.75,12.75,0,0,1,0,82.25V12.75A12.75,12.75,0,0,1,12.75,0H127.18a12.75,12.75,0,0,1,12.75,12.75v69.5A12.75,12.75,0,0,1,127.18,95h-8.54a12.67,12.67,0,0,1-6.44-1.74A12.63,12.63,0,0,1,105.77,95H55.27l-12.18,6.42A12.76,12.76,0,0,1,37.14,102.9ZM25.5,69.5h10a12.75,12.75,0,0,1,8.06,2.87L46.17,71a12.81,12.81,0,0,1,5.95-1.47h53.65a12.73,12.73,0,0,1,6.43,1.74,13.68,13.68,0,0,1,2.23-1V25.5H25.5Z"/></g><g class="cls-3"><path class="cls-2" d="M37.14,102.15a12,12,0,0,1-11.27-7.9H12.75a12,12,0,0,1-12-12V12.75a12,12,0,0,1,12-12H127.18a12,12,0,0,1,12,12v69.5a12,12,0,0,1-12,12h-8.54a11.9,11.9,0,0,1-6.44-1.87,11.87,11.87,0,0,1-6.43,1.87H55.09l-12.35,6.51A12,12,0,0,1,37.14,102.15ZM24.75,70.25h10.7a12,12,0,0,1,8,3l3.11-1.63a12,12,0,0,1,5.6-1.39h53.65a12,12,0,0,1,6.43,1.87,12.19,12.19,0,0,1,3-1.36v-46H24.75Z"/></g><g class="cls-4"><path class="cls-2" d="M37.14,101.4a11.25,11.25,0,0,1-10.73-7.9H12.75A11.25,11.25,0,0,1,1.5,82.25V12.75A11.25,11.25,0,0,1,12.75,1.5H127.18a11.25,11.25,0,0,1,11.25,11.25v69.5A11.25,11.25,0,0,1,127.18,93.5h-8.54a11.26,11.26,0,0,1-6.44-2,11.21,11.21,0,0,1-6.43,2H54.9l-12.51,6.6A11.3,11.3,0,0,1,37.14,101.4ZM24,71H35.45a11.22,11.22,0,0,1,7.84,3.19l3.58-1.89A11.3,11.3,0,0,1,52.12,71h53.65a11.21,11.21,0,0,1,6.43,2,11.39,11.39,0,0,1,3.73-1.69V24H24Z"/></g><g class="cls-5"><path class="cls-2" d="M37.14,100.65A10.51,10.51,0,0,1,27,92.75H12.75a10.5,10.5,0,0,1-10.5-10.5V12.75a10.5,10.5,0,0,1,10.5-10.5H127.18a10.5,10.5,0,0,1,10.5,10.5v69.5a10.5,10.5,0,0,1-10.5,10.5h-8.54a10.46,10.46,0,0,1-6.44-2.2,10.44,10.44,0,0,1-6.43,2.2h-51L42,99.43A10.46,10.46,0,0,1,37.14,100.65ZM23.25,71.75h12.2a10.53,10.53,0,0,1,7.7,3.36L47.22,73a10.57,10.57,0,0,1,4.9-1.21h53.65A10.44,10.44,0,0,1,112.2,74a10.64,10.64,0,0,1,4.48-2V23.25H23.25Z"/></g><g class="cls-6"><path class="cls-2" d="M37.14,99.9a9.77,9.77,0,0,1-9.53-7.71l0-.19H12.75A9.75,9.75,0,0,1,3,82.25V12.75A9.76,9.76,0,0,1,12.75,3H127.18a9.76,9.76,0,0,1,9.75,9.75v69.5A9.75,9.75,0,0,1,127.18,92h-8.54a9.72,9.72,0,0,1-6.44-2.42A9.69,9.69,0,0,1,105.77,92H54.53L41.69,98.77A9.73,9.73,0,0,1,37.14,99.9ZM22.5,72.5h13A9.73,9.73,0,0,1,43,76.05l4.6-2.42a9.73,9.73,0,0,1,4.55-1.13h53.65a9.7,9.7,0,0,1,6.43,2.43,9.7,9.7,0,0,1,5.23-2.35V22.5H22.5Z"/></g><g class="cls-7"><path class="cls-2" d="M37.14,99.15A9,9,0,0,1,28.35,92l-.17-.79H12.75a9,9,0,0,1-9-9V12.75a9,9,0,0,1,9-9H127.18a9,9,0,0,1,9,9v69.5a9,9,0,0,1-9,9h-8.54a9,9,0,0,1-6.44-2.71,9,9,0,0,1-6.43,2.71H54.34l-13,6.86A9,9,0,0,1,37.14,99.15ZM21.75,73.25h13.7A9,9,0,0,1,42.76,77l5.16-2.72a9,9,0,0,1,4.2-1h53.65A9,9,0,0,1,112.2,76a9,9,0,0,1,6-2.7V21.75H21.75Z"/></g><g class="cls-8"><path class="cls-2" d="M37.14,98.4a8.26,8.26,0,0,1-8.06-6.52l-.3-1.38h-16A8.25,8.25,0,0,1,4.5,82.25V12.75A8.25,8.25,0,0,1,12.75,4.5H127.18a8.25,8.25,0,0,1,8.25,8.25v69.5a8.25,8.25,0,0,1-8.25,8.25h-8.54a8.24,8.24,0,0,1-6.44-3.09,8.2,8.2,0,0,1-6.43,3.09H54.16L41,97.44A8.17,8.17,0,0,1,37.14,98.4ZM21,74H35.45a8.25,8.25,0,0,1,7.06,4l5.76-3a8.31,8.31,0,0,1,3.85-1h53.65a8.23,8.23,0,0,1,6.43,3.09A8.27,8.27,0,0,1,118.64,74h.29V21H21Z"/></g><g class="cls-9"><path class="cls-2" d="M37.14,97.65a7.52,7.52,0,0,1-7.33-5.93l-.42-2H12.75a7.5,7.5,0,0,1-7.5-7.5V12.75a7.5,7.5,0,0,1,7.5-7.5H127.18a7.5,7.5,0,0,1,7.5,7.5v69.5a7.5,7.5,0,0,1-7.5,7.5h-8.54a7.51,7.51,0,0,1-6.44-3.64,7.49,7.49,0,0,1-6.43,3.64H54l-13.33,7A7.44,7.44,0,0,1,37.14,97.65ZM20.25,74.75h15.2A7.51,7.51,0,0,1,42.21,79l6.41-3.38a7.5,7.5,0,0,1,3.5-.87h53.65a7.48,7.48,0,0,1,6.43,3.65,7.5,7.5,0,0,1,6.44-3.65h1V20.25H20.25Z"/></g><g class="cls-10"><path class="cls-2" d="M37.14,96.9a6.76,6.76,0,0,1-6.59-5.34L30,89H12.75A6.75,6.75,0,0,1,6,82.25V12.75A6.75,6.75,0,0,1,12.75,6H127.18a6.75,6.75,0,0,1,6.75,6.75v69.5A6.75,6.75,0,0,1,127.18,89h-8.54a6.76,6.76,0,0,1-6.44-4.71A6.75,6.75,0,0,1,105.77,89h-52l-13.5,7.12A6.83,6.83,0,0,1,37.14,96.9Zm15-21.4h53.65a6.75,6.75,0,0,1,6.43,4.71,6.76,6.76,0,0,1,6.44-4.71h1.79v-56H19.5v56h16a6.75,6.75,0,0,1,6.38,4.55L49,76.28A6.77,6.77,0,0,1,52.12,75.5Z"/></g><g class="cls-11"><path class="cls-2" d="M37.14,96.15a6,6,0,0,1-5.86-4.74l-.68-3.16H12.75a6,6,0,0,1-6-6V12.75a6,6,0,0,1,6-6H127.18a6,6,0,0,1,6,6v69.5a6,6,0,0,1-6,6h-8.54a6,6,0,1,1,0-12h2.54V18.75H18.75v57.5h16.7A6,6,0,0,1,41.31,81l0,.16,8-4.21a6,6,0,0,1,2.8-.69h53.65a6,6,0,0,1,0,12H53.6l-13.66,7.2A6,6,0,0,1,37.14,96.15Z"/></g><g class="cls-12"><path class="cls-2" d="M37.14,95.4A5.27,5.27,0,0,1,32,91.25l-.8-3.75H12.75A5.25,5.25,0,0,1,7.5,82.25V12.75A5.25,5.25,0,0,1,12.75,7.5H127.18a5.25,5.25,0,0,1,5.25,5.25v69.5a5.25,5.25,0,0,1-5.25,5.25h-8.54a5.25,5.25,0,1,1,0-10.5h3.29V18H18V77H35.45a5.25,5.25,0,0,1,5.13,4.15l.24,1.12,8.85-4.66A5.2,5.2,0,0,1,52.12,77h53.65a5.25,5.25,0,0,1,0,10.5H53.42L39.59,94.79A5.26,5.26,0,0,1,37.14,95.4Z"/></g><g class="cls-13"><path class="cls-2" d="M37.14,94.65a4.57,4.57,0,0,1-1.9-.43,4.45,4.45,0,0,1-2.49-3.13l-.94-4.34H12.75a4.49,4.49,0,0,1-4.5-4.5V12.75a4.49,4.49,0,0,1,4.5-4.5H127.18a4.5,4.5,0,0,1,4.5,4.5v69.5a4.5,4.5,0,0,1-4.5,4.5h-8.54a4.5,4.5,0,1,1,0-9h4V17.25H17.25v60.5h18.2a4.5,4.5,0,0,1,4.4,3.56l.45,2.09L50,78.27a4.5,4.5,0,0,1,2.1-.52h53.65a4.5,4.5,0,0,1,0,9H53.23l-14,7.38A4.53,4.53,0,0,1,37.14,94.65Z"/></g><g class="cls-14"><path class="cls-2" d="M37.14,93.9a3.65,3.65,0,0,1-1.58-.36,3.72,3.72,0,0,1-2.08-2.61L32.42,86H12.75A3.75,3.75,0,0,1,9,82.25V12.75A3.75,3.75,0,0,1,12.75,9H127.18a3.75,3.75,0,0,1,3.75,3.75v69.5A3.75,3.75,0,0,1,127.18,86h-8.54a3.75,3.75,0,1,1,0-7.5h4.79v-62H16.5v62h19a3.77,3.77,0,0,1,3.67,3l.65,3.06,10.6-5.59a3.8,3.8,0,0,1,1.75-.43h53.65a3.75,3.75,0,0,1,0,7.5H53L38.89,93.46A3.69,3.69,0,0,1,37.14,93.9Z"/></g><g class="cls-15"><path class="cls-2" d="M37.14,93.15a2.94,2.94,0,0,1-1.26-.29,3,3,0,0,1-1.67-2.08L33,85.25H12.75a3,3,0,0,1-3-3V12.75a3,3,0,0,1,3-3H127.18a3,3,0,0,1,3,3v69.5a3,3,0,0,1-3,3h-8.54a3,3,0,1,1,0-6h5.54V15.75H15.75v63.5h19.7a3,3,0,0,1,2.93,2.37l.87,4L50.72,79.6a3,3,0,0,1,1.4-.35h53.65a3,3,0,0,1,0,6H52.86L38.54,92.8A3,3,0,0,1,37.14,93.15Z"/></g><g class="cls-16"><path class="cls-2" d="M37.14,92.4a2.16,2.16,0,0,1-1-.22A2.19,2.19,0,0,1,35,90.62L33.63,84.5H12.75a2.25,2.25,0,0,1-2.25-2.25V12.75a2.25,2.25,0,0,1,2.25-2.25H127.18a2.25,2.25,0,0,1,2.25,2.25v69.5a2.25,2.25,0,0,1-2.25,2.25h-8.54a2.25,2.25,0,1,1,0-4.5h6.29V15H15V80H35.45a2.25,2.25,0,0,1,2.2,1.78l1.07,5,12.35-6.51a2.24,2.24,0,0,1,1-.26h53.65a2.25,2.25,0,0,1,0,4.5H52.67L38.19,92.14A2.24,2.24,0,0,1,37.14,92.4Z"/></g><path class="cls-2" d="M37.14,91.65a1.42,1.42,0,0,1-.63-.15,1.46,1.46,0,0,1-.83-1l-1.44-6.71H12.75a1.5,1.5,0,0,1-1.5-1.5V12.75a1.5,1.5,0,0,1,1.5-1.5H127.18a1.5,1.5,0,0,1,1.5,1.5v69.5a1.5,1.5,0,0,1-1.5,1.5h-8.54a1.5,1.5,0,1,1,0-3h7V14.25H14.25v66.5h21.2a1.49,1.49,0,0,1,1.46,1.19l1.29,6,13.22-7a1.51,1.51,0,0,1,.7-.17h53.65a1.5,1.5,0,0,1,0,3H52.49L37.84,91.47A1.4,1.4,0,0,1,37.14,91.65Z"/><path class="cls-17" d="M37.14,90.65a.54.54,0,0,1-.21-.05.5.5,0,0,1-.27-.35L35,82.75H12.75a.5.5,0,0,1-.5-.5V12.75a.5.5,0,0,1,.5-.5H127.18a.5.5,0,0,1,.5.5v69.5a.5.5,0,0,1-.5.5h-8.54a.5.5,0,0,1-.5-.5.5.5,0,0,1,.5-.5h8V13.25H13.25v68.5h22.2a.51.51,0,0,1,.49.4L37.5,89.4l14.38-7.59a.53.53,0,0,1,.24-.06h53.65a.51.51,0,0,1,.5.5.5.5,0,0,1-.5.5H52.24L37.38,90.59A.48.48,0,0,1,37.14,90.65Z"/></g></g></svg>