<svg xmlns="http://www.w3.org/2000/svg" viewBox="0 0 87.28 109.92">
  <defs>
    <style>.cls-1{opacity:0;}.cls-2{fill:#0b6bff;}.cls-3{opacity:0;}.cls-4{opacity:0;}.cls-5{opacity:0.01;}.cls-6{opacity:0.01;}.cls-7{opacity:0.01;}.cls-8{opacity:0.02;}.cls-9{opacity:0.02;}.cls-10{opacity:0.03;}.cls-11{opacity:0.03;}.cls-12{opacity:0.04;}.cls-13{opacity:0.05;}.cls-14{opacity:0.07;}.cls-15{opacity:0.09;}.cls-16{opacity:0.15;}.cls-17{fill:#fff;}</style>
  </defs>
  <g id="Слой_2" data-name="Слой 2">
    <g id="Layer_1" data-name="Layer 1">
      <g class="cls-1">
        <path class="cls-2" d="M44.52,109.92A12.77,12.77,0,0,1,33.74,104l-1.46-2.31H12.75A12.75,12.75,0,0,1,0,88.93V55a12.69,12.69,0,0,1,1.91-6.71A12.69,12.69,0,0,1,0,41.54V12.75A12.75,12.75,0,0,1,12.75,0H74.53A12.75,12.75,0,0,1,87.28,12.75V88.93a12.75,12.75,0,0,1-12.75,12.75h-18L55.86,103a12.74,12.74,0,0,1-10.77,6.91Zm-19-33.74H39.31a12.74,12.74,0,0,1,4.72.9,12.74,12.74,0,0,1,4.72-.9h13V25.5H25.5v16a12.69,12.69,0,0,1-1.91,6.71A12.69,12.69,0,0,1,25.5,55Z"/>
      </g>
      <g class="cls-3">
        <path class="cls-2" d="M44.52,109.17a12,12,0,0,1-10.14-5.58l-1.68-2.66h-20a12,12,0,0,1-12-12V55A12,12,0,0,1,2.8,48.25a12,12,0,0,1-2-6.71V12.75a12,12,0,0,1,12-12H74.53a12,12,0,0,1,12,12V88.93a12,12,0,0,1-12,12H56.08l-.89,1.72a12,12,0,0,1-10.13,6.51ZM24.75,76.93H39.31a12,12,0,0,1,4.72,1,12,12,0,0,1,4.72-1H62.53V24.75H24.75V41.54a12,12,0,0,1-2.05,6.71A12,12,0,0,1,24.75,55Z"/>
      </g>
      <g class="cls-4">
        <path class="cls-2" d="M44.52,108.42A11.23,11.23,0,0,1,35,103.18l-1.9-3H12.75A11.25,11.25,0,0,1,1.5,88.93V55a11.23,11.23,0,0,1,2.22-6.71A11.25,11.25,0,0,1,1.5,41.54V12.75A11.25,11.25,0,0,1,12.75,1.5H74.53A11.25,11.25,0,0,1,85.78,12.75V88.93a11.25,11.25,0,0,1-11.25,11.25H55.62l-1.09,2.13a11.26,11.26,0,0,1-9.51,6.1ZM24,77.68H39.31a11.18,11.18,0,0,1,4.72,1,11.14,11.14,0,0,1,4.72-1H63.28V24H24V41.54a11.25,11.25,0,0,1-2.22,6.71A11.23,11.23,0,0,1,24,55Z"/>
      </g>
      <g class="cls-5">
        <path class="cls-2" d="M44.52,107.67a10.49,10.49,0,0,1-8.88-4.89l-2.12-3.35H12.75a10.5,10.5,0,0,1-10.5-10.5V55a10.43,10.43,0,0,1,2.43-6.71,10.43,10.43,0,0,1-2.43-6.71V12.75a10.5,10.5,0,0,1,10.5-10.5H74.53A10.5,10.5,0,0,1,85,12.75V88.93a10.5,10.5,0,0,1-10.5,10.5H55.17L53.86,102A10.51,10.51,0,0,1,45,107.66ZM23.25,78.43H39.31A10.45,10.45,0,0,1,44,79.55a10.42,10.42,0,0,1,4.72-1.12H64V23.25H23.25V41.54a10.43,10.43,0,0,1-2.43,6.71A10.43,10.43,0,0,1,23.25,55Z"/>
      </g>
      <g class="cls-6">
        <path class="cls-2" d="M44.52,106.92a9.74,9.74,0,0,1-8.24-4.54l-2.34-3.7H12.75A9.76,9.76,0,0,1,3,88.93V55a9.72,9.72,0,0,1,2.68-6.71A9.72,9.72,0,0,1,3,41.54V12.75A9.76,9.76,0,0,1,12.75,3H74.53a9.75,9.75,0,0,1,9.75,9.75V88.93a9.75,9.75,0,0,1-9.75,9.75H54.71l-1.52,2.95A9.73,9.73,0,0,1,45,106.91Zm-22-27.74H39.31A9.7,9.7,0,0,1,44,80.4a9.7,9.7,0,0,1,4.72-1.22h16V22.5H22.5v19a9.72,9.72,0,0,1-2.68,6.71A9.72,9.72,0,0,1,22.5,55Z"/>
      </g>
      <g class="cls-7">
        <path class="cls-2" d="M44.52,106.17A9,9,0,0,1,36.91,102l-2.56-4H12.75a9,9,0,0,1-9-9V55a9,9,0,0,1,3-6.71,9,9,0,0,1-3-6.71V12.75a9,9,0,0,1,9-9H74.53a9,9,0,0,1,9,9V88.93a9,9,0,0,1-9,9H54.25l-1.72,3.35a9,9,0,0,1-7.61,4.88ZM21.75,79.93H39.31A8.93,8.93,0,0,1,44,81.27a9,9,0,0,1,4.72-1.34H65.53V21.75H21.75V41.54a9,9,0,0,1-3,6.71,9,9,0,0,1,3,6.71Z"/>
      </g>
      <g class="cls-8">
        <path class="cls-2" d="M44.52,105.42a8.23,8.23,0,0,1-7-3.84l-2.79-4.4h-22A8.25,8.25,0,0,1,4.5,88.93V55A8.23,8.23,0,0,1,8,48.25,8.25,8.25,0,0,1,4.5,41.54V12.75A8.25,8.25,0,0,1,12.75,4.5H74.53a8.25,8.25,0,0,1,8.25,8.25V88.93a8.25,8.25,0,0,1-8.25,8.25H53.79l-1.93,3.76a8.25,8.25,0,0,1-7,4.48ZM21,80.68H39.31A8.26,8.26,0,0,1,44,82.16a8.23,8.23,0,0,1,4.72-1.48H66.28V21H21V41.54a8.25,8.25,0,0,1-3.45,6.71A8.23,8.23,0,0,1,21,55Z"/>
      </g>
      <g class="cls-9">
        <path class="cls-2" d="M44.52,104.67a7.5,7.5,0,0,1-6.34-3.49l-3-4.75H12.75a7.5,7.5,0,0,1-7.5-7.5V55A7.5,7.5,0,0,1,9.4,48.25a7.51,7.51,0,0,1-4.15-6.71V12.75a7.5,7.5,0,0,1,7.5-7.5H74.53a7.5,7.5,0,0,1,7.5,7.5V88.93a7.5,7.5,0,0,1-7.5,7.5H53.33l-2.14,4.17a7.52,7.52,0,0,1-6.34,4.07ZM20.25,81.43H39.31A7.49,7.49,0,0,1,44,83.1a7.51,7.51,0,0,1,4.72-1.67H67V20.25H20.25V41.54a7.51,7.51,0,0,1-4.15,6.71A7.5,7.5,0,0,1,20.25,55Z"/>
      </g>
      <g class="cls-10">
        <path class="cls-2" d="M44.52,103.92a6.76,6.76,0,0,1-5.71-3.14l-3.22-5.1H12.75A6.75,6.75,0,0,1,6,88.93V55a6.74,6.74,0,0,1,6-6.71,6.75,6.75,0,0,1-6-6.71V12.75A6.75,6.75,0,0,1,12.75,6H74.53a6.75,6.75,0,0,1,6.75,6.75V88.93a6.75,6.75,0,0,1-6.75,6.75H52.88l-2.36,4.58a6.75,6.75,0,0,1-5.7,3.66Zm-25-21.74H39.31A6.72,6.72,0,0,1,44,84.11a6.73,6.73,0,0,1,4.72-1.93h19V19.5H19.5v22a6.75,6.75,0,0,1-6,6.71,6.74,6.74,0,0,1,6,6.71Z"/>
      </g>
      <g class="cls-11">
        <path class="cls-2" d="M44.52,103.17a6,6,0,0,1-5.07-2.79L36,94.93H12.75a6,6,0,0,1-6-6V55a6,6,0,0,1,12,0v28H39.31A6,6,0,0,1,44,85.23a6,6,0,0,1,4.72-2.3H68.53V18.75H18.75V41.54a6,6,0,0,1-12,0V12.75a6,6,0,0,1,6-6H74.53a6,6,0,0,1,6,6V88.93a6,6,0,0,1-6,6H52.42l-2.56,5a6,6,0,0,1-5.07,3.26Z"/>
      </g>
      <g class="cls-12">
        <path class="cls-2" d="M44.52,102.42A5.26,5.26,0,0,1,40.08,100l-3.67-5.8H12.75A5.25,5.25,0,0,1,7.5,88.93V55A5.25,5.25,0,0,1,18,55V83.68H39.31a5.24,5.24,0,0,1,4.43,2.44l.31.48,0-.07a5.26,5.26,0,0,1,4.67-2.85H69.28V18H18V41.54a5.25,5.25,0,0,1-10.5,0V12.75A5.25,5.25,0,0,1,12.75,7.5H74.53a5.25,5.25,0,0,1,5.25,5.25V88.93a5.25,5.25,0,0,1-5.25,5.25H52l-2.77,5.39a5.25,5.25,0,0,1-4.44,2.85Z"/>
      </g>
      <g class="cls-13">
        <path class="cls-2" d="M44.52,101.67a4.47,4.47,0,0,1-3.8-2.09l-3.89-6.15H12.75a4.5,4.5,0,0,1-4.5-4.5V55a4.5,4.5,0,0,1,9,0V84.43H39.31a4.5,4.5,0,0,1,3.8,2.09l1,1.59.64-1.24a4.5,4.5,0,0,1,4-2.44H70V17.25H17.25V41.54a4.5,4.5,0,0,1-9,0V12.75a4.49,4.49,0,0,1,4.5-4.5H74.53a4.49,4.49,0,0,1,4.5,4.5V88.93a4.5,4.5,0,0,1-4.5,4.5h-23l-3,5.8a4.49,4.49,0,0,1-3.8,2.44Z"/>
     </g>
      <g class="cls-14">
        <path class="cls-2" d="M44.52,100.92a3.75,3.75,0,0,1-3.17-1.74l-4.11-6.5H12.75A3.75,3.75,0,0,1,9,88.93V55a3.75,3.75,0,0,1,7.5,0V85.18H39.31a3.77,3.77,0,0,1,3.17,1.74l1.7,2.7,1.24-2.41a3.74,3.74,0,0,1,3.33-2h22V16.5H16.5v25a3.75,3.75,0,0,1-7.5,0V12.75A3.75,3.75,0,0,1,12.75,9H74.53a3.75,3.75,0,0,1,3.75,3.75V88.93a3.75,3.75,0,0,1-3.75,3.75H51l-3.18,6.21a3.78,3.78,0,0,1-3.17,2Z"/>
      </g>
      <g class="cls-15">
        <path class="cls-2" d="M44.52,100.17A3,3,0,0,1,42,98.78l-4.33-6.85H12.75a3,3,0,0,1-3-3V55a3,3,0,0,1,6,0v31H39.31a3,3,0,0,1,2.53,1.39l2.41,3.81,1.84-3.57a3,3,0,0,1,2.66-1.63H71.53V15.75H15.75V41.54a3,3,0,0,1-6,0V12.75a3,3,0,0,1,3-3H74.53a3,3,0,0,1,3,3V88.93a3,3,0,0,1-3,3H50.59l-3.4,6.61a3,3,0,0,1-2.54,1.63Z"/>
      </g>
      <g class="cls-16">
        <path class="cls-2" d="M44.52,99.42a2.24,2.24,0,0,1-1.9-1l-4.55-7.2H12.75a2.25,2.25,0,0,1-2.25-2.25V55A2.25,2.25,0,0,1,15,55V86.68H39.31a2.24,2.24,0,0,1,1.9,1l3.11,4.92,2.43-4.74a2.26,2.26,0,0,1,2-1.22H72.28V15H15V41.54a2.25,2.25,0,0,1-4.5,0V12.75a2.25,2.25,0,0,1,2.25-2.25H74.53a2.25,2.25,0,0,1,2.25,2.25V88.93a2.25,2.25,0,0,1-2.25,2.25H50.13l-3.61,7a2.23,2.23,0,0,1-1.9,1.22Z"/>
      </g>
      <path class="cls-2" d="M44.52,98.67a1.51,1.51,0,0,1-1.27-.7l-4.77-7.54H12.75a1.5,1.5,0,0,1-1.5-1.5V55a1.5,1.5,0,0,1,3,0V87.43H39.31a1.48,1.48,0,0,1,1.26.7l3.81,6,3-5.91a1.5,1.5,0,0,1,1.33-.81H73V14.25H14.25V41.54a1.5,1.5,0,0,1-3,0V12.75a1.5,1.5,0,0,1,1.5-1.5H74.53a1.5,1.5,0,0,1,1.5,1.5V88.93a1.5,1.5,0,0,1-1.5,1.5H49.67l-3.82,7.43a1.48,1.48,0,0,1-1.26.81Z"/>
      <path class="cls-17" d="M44.52,97.67a.48.48,0,0,1-.42-.23l-5.07-8H12.75a.5.5,0,0,1-.5-.5V55a.5.5,0,0,1,1,0V88.43H39.31a.48.48,0,0,1,.42.23l4.74,7.51,3.84-7.47a.5.5,0,0,1,.44-.27H74V13.25H13.25V41.54a.5.5,0,0,1-1,0V12.75a.5.5,0,0,1,.5-.5H74.53a.5.5,0,0,1,.5.5V88.93a.5.5,0,0,1-.5.5H49.06l-4.1,8a.48.48,0,0,1-.42.27Z"/>
    </g>
  </g>
</svg>